<mxfile host="Electron" agent="Mozilla/5.0 (Macintosh; Intel Mac OS X 10_15_7) AppleWebKit/537.36 (KHTML, like Gecko) draw.io/26.0.4 Chrome/128.0.6613.186 Electron/32.2.5 Safari/537.36" version="26.0.4">
  <diagram name="Page-1" id="7roNWF1qpoUNGFxGU0f3">
    <mxGraphModel dx="1114" dy="888" grid="1" gridSize="10" guides="1" tooltips="1" connect="1" arrows="1" fold="1" page="1" pageScale="1" pageWidth="850" pageHeight="1100" math="0" shadow="0">
      <root>
        <mxCell id="0" />
        <mxCell id="1" parent="0" />
        <mxCell id="PQe1bKcJ9zIPUSs3W7Ri-1" value="" style="container=1;collapsible=0;expand=0;recursiveResize=0;html=1;whiteSpace=wrap;strokeColor=#1192E8;fillColor=none;strokeWidth=1" vertex="1" parent="1">
          <mxGeometry x="160" y="80" width="850" height="660" as="geometry" />
        </mxCell>
        <mxCell id="PQe1bKcJ9zIPUSs3W7Ri-2" value="IBM Cloud" style="shape=rect;fillColor=none;aspect=fixed;resizable=0;labelPosition=right;verticalLabelPosition=middle;align=left;verticalAlign=middle;strokeColor=none;part=1;spacingLeft=5;fontSize=14;" vertex="1" parent="PQe1bKcJ9zIPUSs3W7Ri-1">
          <mxGeometry width="48" height="48" relative="1" as="geometry" />
        </mxCell>
        <mxCell id="PQe1bKcJ9zIPUSs3W7Ri-3" value="" style="fillColor=#1192E8;shape=mxgraph.ibm_cloud.ibm-cloud;strokeColor=none;dashed=0;outlineConnect=0;html=1;labelPosition=center;verticalLabelPosition=bottom;verticalAlign=top;part=1;movable=0;resizable=0;rotatable=0;" vertex="1" parent="PQe1bKcJ9zIPUSs3W7Ri-2">
          <mxGeometry width="24" height="24" relative="1" as="geometry">
            <mxPoint x="12" y="12" as="offset" />
          </mxGeometry>
        </mxCell>
        <mxCell id="PQe1bKcJ9zIPUSs3W7Ri-5" value="" style="container=1;collapsible=0;expand=0;recursiveResize=0;html=1;whiteSpace=wrap;strokeColor=#1192E8;fillColor=none;strokeWidth=1" vertex="1" parent="PQe1bKcJ9zIPUSs3W7Ri-1">
          <mxGeometry y="40" width="850" height="620" as="geometry" />
        </mxCell>
        <mxCell id="PQe1bKcJ9zIPUSs3W7Ri-13" value="" style="container=1;collapsible=0;expand=0;recursiveResize=0;html=1;whiteSpace=wrap;strokeColor=#1192E8;fillColor=none;strokeWidth=1" vertex="1" parent="PQe1bKcJ9zIPUSs3W7Ri-5">
          <mxGeometry y="40" width="340" height="580" as="geometry" />
        </mxCell>
        <mxCell id="PQe1bKcJ9zIPUSs3W7Ri-111" value="" style="container=1;collapsible=0;expand=0;recursiveResize=0;html=1;whiteSpace=wrap;strokeColor=#FA4D56;fillColor=none;dashed=1;dashPattern=1 3;strokeWidth=2" vertex="1" parent="PQe1bKcJ9zIPUSs3W7Ri-13">
          <mxGeometry x="10" y="350" width="320" height="190" as="geometry" />
        </mxCell>
        <mxCell id="PQe1bKcJ9zIPUSs3W7Ri-112" value="Security Group" style="shape=rect;fillColor=none;aspect=fixed;resizable=0;labelPosition=right;verticalLabelPosition=middle;align=left;verticalAlign=middle;strokeColor=none;part=1;spacingLeft=5;fontSize=14;" vertex="1" parent="PQe1bKcJ9zIPUSs3W7Ri-111">
          <mxGeometry width="48" height="48" relative="1" as="geometry" />
        </mxCell>
        <mxCell id="PQe1bKcJ9zIPUSs3W7Ri-113" value="" style="fillColor=#FA4D56;shape=mxgraph.ibm_cloud.group--security;strokeColor=none;dashed=0;outlineConnect=0;html=1;labelPosition=center;verticalLabelPosition=bottom;verticalAlign=top;part=1;movable=0;resizable=0;rotatable=0;" vertex="1" parent="PQe1bKcJ9zIPUSs3W7Ri-112">
          <mxGeometry width="24" height="24" relative="1" as="geometry">
            <mxPoint x="12" y="12" as="offset" />
          </mxGeometry>
        </mxCell>
        <mxCell id="PQe1bKcJ9zIPUSs3W7Ri-108" value="" style="container=1;collapsible=0;expand=0;recursiveResize=0;html=1;whiteSpace=wrap;strokeColor=#FA4D56;fillColor=none;dashed=1;dashPattern=1 3;strokeWidth=2" vertex="1" parent="PQe1bKcJ9zIPUSs3W7Ri-13">
          <mxGeometry x="10" y="100" width="280" height="210" as="geometry" />
        </mxCell>
        <mxCell id="PQe1bKcJ9zIPUSs3W7Ri-109" value="Security Group" style="shape=rect;fillColor=none;aspect=fixed;resizable=0;labelPosition=right;verticalLabelPosition=middle;align=left;verticalAlign=middle;strokeColor=none;part=1;spacingLeft=5;fontSize=14;" vertex="1" parent="PQe1bKcJ9zIPUSs3W7Ri-108">
          <mxGeometry width="48" height="48" relative="1" as="geometry" />
        </mxCell>
        <mxCell id="PQe1bKcJ9zIPUSs3W7Ri-110" value="" style="fillColor=#FA4D56;shape=mxgraph.ibm_cloud.group--security;strokeColor=none;dashed=0;outlineConnect=0;html=1;labelPosition=center;verticalLabelPosition=bottom;verticalAlign=top;part=1;movable=0;resizable=0;rotatable=0;" vertex="1" parent="PQe1bKcJ9zIPUSs3W7Ri-109">
          <mxGeometry width="24" height="24" relative="1" as="geometry">
            <mxPoint x="12" y="12" as="offset" />
          </mxGeometry>
        </mxCell>
        <mxCell id="PQe1bKcJ9zIPUSs3W7Ri-14" value="Public Network" style="shape=rect;fillColor=none;aspect=fixed;resizable=0;labelPosition=right;verticalLabelPosition=middle;align=left;verticalAlign=middle;strokeColor=none;part=1;spacingLeft=5;fontSize=14;" vertex="1" parent="PQe1bKcJ9zIPUSs3W7Ri-13">
          <mxGeometry width="48" height="48" relative="1" as="geometry" />
        </mxCell>
        <mxCell id="PQe1bKcJ9zIPUSs3W7Ri-15" value="" style="fillColor=#1192E8;shape=mxgraph.ibm_cloud.network--public;strokeColor=none;dashed=0;outlineConnect=0;html=1;labelPosition=center;verticalLabelPosition=bottom;verticalAlign=top;part=1;movable=0;resizable=0;rotatable=0;" vertex="1" parent="PQe1bKcJ9zIPUSs3W7Ri-14">
          <mxGeometry width="24" height="24" relative="1" as="geometry">
            <mxPoint x="12" y="12" as="offset" />
          </mxGeometry>
        </mxCell>
        <mxCell id="PQe1bKcJ9zIPUSs3W7Ri-25" value="" style="container=1;collapsible=0;expand=0;recursiveResize=0;html=1;whiteSpace=wrap;strokeColor=#1192E8;fillColor=none;strokeWidth=1" vertex="1" parent="PQe1bKcJ9zIPUSs3W7Ri-13">
          <mxGeometry x="30" y="140" width="230" height="140" as="geometry" />
        </mxCell>
        <mxCell id="PQe1bKcJ9zIPUSs3W7Ri-26" value="mgmt-subnet 10.0.0.0/24" style="shape=rect;fillColor=none;aspect=fixed;resizable=0;labelPosition=right;verticalLabelPosition=middle;align=left;verticalAlign=middle;strokeColor=none;part=1;spacingLeft=5;fontSize=14;" vertex="1" parent="PQe1bKcJ9zIPUSs3W7Ri-25">
          <mxGeometry width="48" height="48" relative="1" as="geometry" />
        </mxCell>
        <mxCell id="PQe1bKcJ9zIPUSs3W7Ri-27" value="" style="fillColor=#1192E8;shape=mxgraph.ibm_cloud.ibm-cloud--subnets;strokeColor=none;dashed=0;outlineConnect=0;html=1;labelPosition=center;verticalLabelPosition=bottom;verticalAlign=top;part=1;movable=0;resizable=0;rotatable=0;" vertex="1" parent="PQe1bKcJ9zIPUSs3W7Ri-26">
          <mxGeometry width="24" height="24" relative="1" as="geometry">
            <mxPoint x="12" y="12" as="offset" />
          </mxGeometry>
        </mxCell>
        <mxCell id="PQe1bKcJ9zIPUSs3W7Ri-28" value="" style="shape=rect;fillColor=#1192E8;aspect=fixed;resizable=0;labelPosition=right;verticalLabelPosition=middle;align=left;verticalAlign=middle;strokeColor=none;part=1;spacingLeft=5;fontSize=14;" vertex="1" parent="PQe1bKcJ9zIPUSs3W7Ri-25">
          <mxGeometry width="4" height="48" relative="1" as="geometry" />
        </mxCell>
        <mxCell id="PQe1bKcJ9zIPUSs3W7Ri-77" value="mgmt-server" style="shape=rect;fillColor=#198038;aspect=fixed;resizable=0;labelPosition=center;verticalLabelPosition=bottom;align=center;verticalAlign=top;strokeColor=none;fontSize=14;" vertex="1" parent="PQe1bKcJ9zIPUSs3W7Ri-25">
          <mxGeometry x="91" y="51" width="48" height="48" as="geometry" />
        </mxCell>
        <mxCell id="PQe1bKcJ9zIPUSs3W7Ri-78" value="" style="fillColor=#ffffff;strokeColor=none;dashed=0;outlineConnect=0;html=1;labelPosition=center;verticalLabelPosition=bottom;verticalAlign=top;part=1;movable=0;resizable=0;rotatable=0;shape=mxgraph.ibm_cloud.ibm-cloud--virtual-server-vpc" vertex="1" parent="PQe1bKcJ9zIPUSs3W7Ri-77">
          <mxGeometry width="24" height="24" relative="1" as="geometry">
            <mxPoint x="12" y="12" as="offset" />
          </mxGeometry>
        </mxCell>
        <mxCell id="PQe1bKcJ9zIPUSs3W7Ri-16" value="" style="shape=rect;fillColor=#1192E8;aspect=fixed;resizable=0;labelPosition=right;verticalLabelPosition=middle;align=left;verticalAlign=middle;strokeColor=none;part=1;spacingLeft=5;fontSize=14;" vertex="1" parent="PQe1bKcJ9zIPUSs3W7Ri-13">
          <mxGeometry width="4" height="48" relative="1" as="geometry" />
        </mxCell>
        <mxCell id="PQe1bKcJ9zIPUSs3W7Ri-55" value="Load Balancer" style="text;html=1;align=center;verticalAlign=middle;whiteSpace=wrap;rounded=0;" vertex="1" parent="PQe1bKcJ9zIPUSs3W7Ri-13">
          <mxGeometry y="490" width="60" height="30" as="geometry" />
        </mxCell>
        <mxCell id="PQe1bKcJ9zIPUSs3W7Ri-53" value="" style="shape=rect;fillColor=#1192E8;aspect=fixed;resizable=0;labelPosition=center;verticalLabelPosition=bottom;align=center;verticalAlign=top;strokeColor=none;fontSize=14;rotation=-90;" vertex="1" parent="PQe1bKcJ9zIPUSs3W7Ri-13">
          <mxGeometry x="22" y="424" width="48" height="48" as="geometry" />
        </mxCell>
        <mxCell id="PQe1bKcJ9zIPUSs3W7Ri-54" value="" style="fillColor=#ffffff;strokeColor=none;dashed=0;outlineConnect=0;html=1;labelPosition=center;verticalLabelPosition=bottom;verticalAlign=top;part=1;movable=0;resizable=0;rotatable=0;shape=mxgraph.ibm_cloud.load-balancer--application;rotation=-90;" vertex="1" parent="PQe1bKcJ9zIPUSs3W7Ri-53">
          <mxGeometry width="24" height="24" relative="1" as="geometry">
            <mxPoint x="12" y="12" as="offset" />
          </mxGeometry>
        </mxCell>
        <mxCell id="PQe1bKcJ9zIPUSs3W7Ri-6" value="VPC" style="shape=rect;fillColor=none;aspect=fixed;resizable=0;labelPosition=right;verticalLabelPosition=middle;align=left;verticalAlign=middle;strokeColor=none;part=1;spacingLeft=5;fontSize=14;" vertex="1" parent="PQe1bKcJ9zIPUSs3W7Ri-5">
          <mxGeometry width="48" height="48" relative="1" as="geometry" />
        </mxCell>
        <mxCell id="PQe1bKcJ9zIPUSs3W7Ri-7" value="" style="fillColor=#1192E8;shape=mxgraph.ibm_cloud.ibm-cloud--vpc;strokeColor=none;dashed=0;outlineConnect=0;html=1;labelPosition=center;verticalLabelPosition=bottom;verticalAlign=top;part=1;movable=0;resizable=0;rotatable=0;" vertex="1" parent="PQe1bKcJ9zIPUSs3W7Ri-6">
          <mxGeometry width="24" height="24" relative="1" as="geometry">
            <mxPoint x="12" y="12" as="offset" />
          </mxGeometry>
        </mxCell>
        <mxCell id="PQe1bKcJ9zIPUSs3W7Ri-8" value="" style="shape=rect;fillColor=#1192E8;aspect=fixed;resizable=0;labelPosition=right;verticalLabelPosition=middle;align=left;verticalAlign=middle;strokeColor=none;part=1;spacingLeft=5;fontSize=14;" vertex="1" parent="PQe1bKcJ9zIPUSs3W7Ri-5">
          <mxGeometry width="4" height="48" relative="1" as="geometry" />
        </mxCell>
        <mxCell id="PQe1bKcJ9zIPUSs3W7Ri-17" value="" style="container=1;collapsible=0;expand=0;recursiveResize=0;html=1;whiteSpace=wrap;strokeColor=#1192E8;fillColor=none;strokeWidth=1" vertex="1" parent="PQe1bKcJ9zIPUSs3W7Ri-5">
          <mxGeometry x="340" y="40" width="510" height="580" as="geometry" />
        </mxCell>
        <mxCell id="PQe1bKcJ9zIPUSs3W7Ri-18" value="Private Network" style="shape=rect;fillColor=none;aspect=fixed;resizable=0;labelPosition=right;verticalLabelPosition=middle;align=left;verticalAlign=middle;strokeColor=none;part=1;spacingLeft=5;fontSize=14;" vertex="1" parent="PQe1bKcJ9zIPUSs3W7Ri-17">
          <mxGeometry width="48" height="48" relative="1" as="geometry" />
        </mxCell>
        <mxCell id="PQe1bKcJ9zIPUSs3W7Ri-19" value="" style="fillColor=#1192E8;shape=mxgraph.ibm_cloud.network--enterprise;strokeColor=none;dashed=0;outlineConnect=0;html=1;labelPosition=center;verticalLabelPosition=bottom;verticalAlign=top;part=1;movable=0;resizable=0;rotatable=0;" vertex="1" parent="PQe1bKcJ9zIPUSs3W7Ri-18">
          <mxGeometry width="24" height="24" relative="1" as="geometry">
            <mxPoint x="12" y="12" as="offset" />
          </mxGeometry>
        </mxCell>
        <mxCell id="PQe1bKcJ9zIPUSs3W7Ri-20" value="" style="shape=rect;fillColor=#1192E8;aspect=fixed;resizable=0;labelPosition=right;verticalLabelPosition=middle;align=left;verticalAlign=middle;strokeColor=none;part=1;spacingLeft=5;fontSize=14;" vertex="1" parent="PQe1bKcJ9zIPUSs3W7Ri-17">
          <mxGeometry width="4" height="48" relative="1" as="geometry" />
        </mxCell>
        <mxCell id="PQe1bKcJ9zIPUSs3W7Ri-49" value="" style="container=1;collapsible=0;expand=0;recursiveResize=0;html=1;whiteSpace=wrap;strokeColor=#1192E8;fillColor=none;strokeWidth=1" vertex="1" parent="PQe1bKcJ9zIPUSs3W7Ri-17">
          <mxGeometry x="100" y="170" width="342" height="347" as="geometry" />
        </mxCell>
        <mxCell id="PQe1bKcJ9zIPUSs3W7Ri-50" value="App subnet (10.0.4.0/24)" style="shape=rect;fillColor=none;aspect=fixed;resizable=0;labelPosition=right;verticalLabelPosition=middle;align=left;verticalAlign=middle;strokeColor=none;part=1;spacingLeft=5;fontSize=14;" vertex="1" parent="PQe1bKcJ9zIPUSs3W7Ri-49">
          <mxGeometry width="48" height="48" relative="1" as="geometry" />
        </mxCell>
        <mxCell id="PQe1bKcJ9zIPUSs3W7Ri-51" value="" style="fillColor=#1192E8;shape=mxgraph.ibm_cloud.ibm-cloud--subnets;strokeColor=none;dashed=0;outlineConnect=0;html=1;labelPosition=center;verticalLabelPosition=bottom;verticalAlign=top;part=1;movable=0;resizable=0;rotatable=0;" vertex="1" parent="PQe1bKcJ9zIPUSs3W7Ri-50">
          <mxGeometry width="24" height="24" relative="1" as="geometry">
            <mxPoint x="12" y="12" as="offset" />
          </mxGeometry>
        </mxCell>
        <mxCell id="PQe1bKcJ9zIPUSs3W7Ri-52" value="" style="shape=rect;fillColor=#1192E8;aspect=fixed;resizable=0;labelPosition=right;verticalLabelPosition=middle;align=left;verticalAlign=middle;strokeColor=none;part=1;spacingLeft=5;fontSize=14;" vertex="1" parent="PQe1bKcJ9zIPUSs3W7Ri-49">
          <mxGeometry width="4" height="48" relative="1" as="geometry" />
        </mxCell>
        <mxCell id="PQe1bKcJ9zIPUSs3W7Ri-72" value="" style="container=1;collapsible=0;expand=0;recursiveResize=0;html=1;whiteSpace=wrap;strokeColor=#FA4D56;fillColor=none;dashed=1;dashPattern=1 3;strokeWidth=2" vertex="1" parent="PQe1bKcJ9zIPUSs3W7Ri-49">
          <mxGeometry x="30" y="50" width="280" height="250" as="geometry" />
        </mxCell>
        <mxCell id="PQe1bKcJ9zIPUSs3W7Ri-73" value="Security Group" style="shape=rect;fillColor=none;aspect=fixed;resizable=0;labelPosition=right;verticalLabelPosition=middle;align=left;verticalAlign=middle;strokeColor=none;part=1;spacingLeft=5;fontSize=14;" vertex="1" parent="PQe1bKcJ9zIPUSs3W7Ri-72">
          <mxGeometry width="48" height="48" relative="1" as="geometry" />
        </mxCell>
        <mxCell id="PQe1bKcJ9zIPUSs3W7Ri-74" value="" style="fillColor=#FA4D56;shape=mxgraph.ibm_cloud.group--security;strokeColor=none;dashed=0;outlineConnect=0;html=1;labelPosition=center;verticalLabelPosition=bottom;verticalAlign=top;part=1;movable=0;resizable=0;rotatable=0;" vertex="1" parent="PQe1bKcJ9zIPUSs3W7Ri-73">
          <mxGeometry width="24" height="24" relative="1" as="geometry">
            <mxPoint x="12" y="12" as="offset" />
          </mxGeometry>
        </mxCell>
        <mxCell id="PQe1bKcJ9zIPUSs3W7Ri-69" value="" style="container=1;collapsible=0;expand=0;recursiveResize=0;html=1;whiteSpace=wrap;strokeColor=#198038;fillColor=none;dashed=1;dashPattern=1 3;strokeWidth=2" vertex="1" parent="PQe1bKcJ9zIPUSs3W7Ri-72">
          <mxGeometry x="30" y="50" width="220" height="180" as="geometry" />
        </mxCell>
        <mxCell id="PQe1bKcJ9zIPUSs3W7Ri-70" value="Auto Scale Group" style="shape=rect;fillColor=none;aspect=fixed;resizable=0;labelPosition=right;verticalLabelPosition=middle;align=left;verticalAlign=middle;strokeColor=none;part=1;spacingLeft=5;fontSize=14;" vertex="1" parent="PQe1bKcJ9zIPUSs3W7Ri-69">
          <mxGeometry width="48" height="48" relative="1" as="geometry" />
        </mxCell>
        <mxCell id="PQe1bKcJ9zIPUSs3W7Ri-71" value="" style="fillColor=#198038;shape=mxgraph.ibm_cloud.autoscaling;strokeColor=none;dashed=0;outlineConnect=0;html=1;labelPosition=center;verticalLabelPosition=bottom;verticalAlign=top;part=1;movable=0;resizable=0;rotatable=0;" vertex="1" parent="PQe1bKcJ9zIPUSs3W7Ri-70">
          <mxGeometry width="24" height="24" relative="1" as="geometry">
            <mxPoint x="12" y="12" as="offset" />
          </mxGeometry>
        </mxCell>
        <mxCell id="PQe1bKcJ9zIPUSs3W7Ri-57" value="" style="shape=rect;fillColor=#198038;aspect=fixed;resizable=0;labelPosition=center;verticalLabelPosition=bottom;align=center;verticalAlign=top;strokeColor=none;fontSize=14;" vertex="1" parent="PQe1bKcJ9zIPUSs3W7Ri-69">
          <mxGeometry x="22" y="97" width="48" height="48" as="geometry" />
        </mxCell>
        <mxCell id="PQe1bKcJ9zIPUSs3W7Ri-58" value="" style="fillColor=#ffffff;strokeColor=none;dashed=0;outlineConnect=0;html=1;labelPosition=center;verticalLabelPosition=bottom;verticalAlign=top;part=1;movable=0;resizable=0;rotatable=0;shape=mxgraph.ibm_cloud.ibm-cloud--virtual-server-vpc" vertex="1" parent="PQe1bKcJ9zIPUSs3W7Ri-57">
          <mxGeometry width="24" height="24" relative="1" as="geometry">
            <mxPoint x="12" y="12" as="offset" />
          </mxGeometry>
        </mxCell>
        <mxCell id="PQe1bKcJ9zIPUSs3W7Ri-64" value="" style="shape=rect;fillColor=#198038;aspect=fixed;resizable=0;labelPosition=center;verticalLabelPosition=bottom;align=center;verticalAlign=top;strokeColor=none;fontSize=14;" vertex="1" parent="PQe1bKcJ9zIPUSs3W7Ri-69">
          <mxGeometry x="142" y="97" width="48" height="48" as="geometry" />
        </mxCell>
        <mxCell id="PQe1bKcJ9zIPUSs3W7Ri-65" value="" style="fillColor=#ffffff;strokeColor=none;dashed=0;outlineConnect=0;html=1;labelPosition=center;verticalLabelPosition=bottom;verticalAlign=top;part=1;movable=0;resizable=0;rotatable=0;shape=mxgraph.ibm_cloud.ibm-cloud--virtual-server-vpc" vertex="1" parent="PQe1bKcJ9zIPUSs3W7Ri-64">
          <mxGeometry width="24" height="24" relative="1" as="geometry">
            <mxPoint x="12" y="12" as="offset" />
          </mxGeometry>
        </mxCell>
        <mxCell id="PQe1bKcJ9zIPUSs3W7Ri-62" value="" style="shape=rect;fillColor=#198038;aspect=fixed;resizable=0;labelPosition=center;verticalLabelPosition=bottom;align=center;verticalAlign=top;strokeColor=none;fontSize=14;" vertex="1" parent="PQe1bKcJ9zIPUSs3W7Ri-69">
          <mxGeometry x="83" y="97" width="48" height="48" as="geometry" />
        </mxCell>
        <mxCell id="PQe1bKcJ9zIPUSs3W7Ri-63" value="" style="fillColor=#ffffff;strokeColor=none;dashed=0;outlineConnect=0;html=1;labelPosition=center;verticalLabelPosition=bottom;verticalAlign=top;part=1;movable=0;resizable=0;rotatable=0;shape=mxgraph.ibm_cloud.ibm-cloud--virtual-server-vpc" vertex="1" parent="PQe1bKcJ9zIPUSs3W7Ri-62">
          <mxGeometry width="24" height="24" relative="1" as="geometry">
            <mxPoint x="12" y="12" as="offset" />
          </mxGeometry>
        </mxCell>
        <mxCell id="PQe1bKcJ9zIPUSs3W7Ri-80" value="" style="container=1;collapsible=0;expand=0;recursiveResize=0;html=1;whiteSpace=wrap;strokeColor=#1192E8;fillColor=none;strokeWidth=1" vertex="1" parent="PQe1bKcJ9zIPUSs3W7Ri-17">
          <mxGeometry x="100" y="80" width="262" height="50" as="geometry" />
        </mxCell>
        <mxCell id="PQe1bKcJ9zIPUSs3W7Ri-81" value="backend-subnet (10.0.3.0/24)" style="shape=rect;fillColor=none;aspect=fixed;resizable=0;labelPosition=right;verticalLabelPosition=middle;align=left;verticalAlign=middle;strokeColor=none;part=1;spacingLeft=5;fontSize=14;" vertex="1" parent="PQe1bKcJ9zIPUSs3W7Ri-80">
          <mxGeometry width="48" height="48" relative="1" as="geometry" />
        </mxCell>
        <mxCell id="PQe1bKcJ9zIPUSs3W7Ri-82" value="" style="fillColor=#1192E8;shape=mxgraph.ibm_cloud.ibm-cloud--subnets;strokeColor=none;dashed=0;outlineConnect=0;html=1;labelPosition=center;verticalLabelPosition=bottom;verticalAlign=top;part=1;movable=0;resizable=0;rotatable=0;" vertex="1" parent="PQe1bKcJ9zIPUSs3W7Ri-81">
          <mxGeometry width="24" height="24" relative="1" as="geometry">
            <mxPoint x="12" y="12" as="offset" />
          </mxGeometry>
        </mxCell>
        <mxCell id="PQe1bKcJ9zIPUSs3W7Ri-83" value="" style="shape=rect;fillColor=#1192E8;aspect=fixed;resizable=0;labelPosition=right;verticalLabelPosition=middle;align=left;verticalAlign=middle;strokeColor=none;part=1;spacingLeft=5;fontSize=14;" vertex="1" parent="PQe1bKcJ9zIPUSs3W7Ri-80">
          <mxGeometry width="4" height="48" relative="1" as="geometry" />
        </mxCell>
        <mxCell id="PQe1bKcJ9zIPUSs3W7Ri-124" value="" style="html=1;labelBackgroundColor=#ffffff;jettySize=auto;orthogonalLoop=1;fontSize=14;rounded=0;jumpStyle=gap;edgeStyle=orthogonalEdgeStyle;startArrow=none;endArrow=block;strokeWidth=2;endFill=1;exitX=1;exitY=0.5;exitDx=0;exitDy=0;entryX=0;entryY=0.5;entryDx=0;entryDy=0;curved=1;" edge="1" parent="PQe1bKcJ9zIPUSs3W7Ri-5" source="PQe1bKcJ9zIPUSs3W7Ri-77" target="PQe1bKcJ9zIPUSs3W7Ri-57">
          <mxGeometry width="48" height="48" relative="1" as="geometry">
            <mxPoint x="270" y="378" as="sourcePoint" />
            <mxPoint x="318" y="330" as="targetPoint" />
          </mxGeometry>
        </mxCell>
        <mxCell id="PQe1bKcJ9zIPUSs3W7Ri-129" value="&lt;font style=&quot;font-size: 13px;&quot;&gt;22/ssh&lt;/font&gt;" style="edgeLabel;html=1;align=center;verticalAlign=middle;resizable=0;points=[];" vertex="1" connectable="0" parent="PQe1bKcJ9zIPUSs3W7Ri-124">
          <mxGeometry x="0.1607" y="12" relative="1" as="geometry">
            <mxPoint as="offset" />
          </mxGeometry>
        </mxCell>
        <mxCell id="PQe1bKcJ9zIPUSs3W7Ri-4" value="" style="shape=rect;fillColor=#1192E8;aspect=fixed;resizable=0;labelPosition=right;verticalLabelPosition=middle;align=left;verticalAlign=middle;strokeColor=none;part=1;spacingLeft=5;fontSize=14;" vertex="1" parent="PQe1bKcJ9zIPUSs3W7Ri-1">
          <mxGeometry width="4" height="48" relative="1" as="geometry" />
        </mxCell>
        <mxCell id="PQe1bKcJ9zIPUSs3W7Ri-21" value="" style="container=1;collapsible=0;expand=0;recursiveResize=0;html=1;whiteSpace=wrap;strokeColor=#1192E8;fillColor=none;strokeWidth=1" vertex="1" parent="1">
          <mxGeometry x="230" y="560" width="240" height="50" as="geometry" />
        </mxCell>
        <mxCell id="PQe1bKcJ9zIPUSs3W7Ri-22" value="alb-subnet-1 (10.0.1.0/24)" style="shape=rect;fillColor=none;aspect=fixed;resizable=0;labelPosition=right;verticalLabelPosition=middle;align=left;verticalAlign=middle;strokeColor=none;part=1;spacingLeft=5;fontSize=14;" vertex="1" parent="PQe1bKcJ9zIPUSs3W7Ri-21">
          <mxGeometry width="48" height="48" relative="1" as="geometry" />
        </mxCell>
        <mxCell id="PQe1bKcJ9zIPUSs3W7Ri-23" value="" style="fillColor=#1192E8;shape=mxgraph.ibm_cloud.ibm-cloud--subnets;strokeColor=none;dashed=0;outlineConnect=0;html=1;labelPosition=center;verticalLabelPosition=bottom;verticalAlign=top;part=1;movable=0;resizable=0;rotatable=0;" vertex="1" parent="PQe1bKcJ9zIPUSs3W7Ri-22">
          <mxGeometry width="24" height="24" relative="1" as="geometry">
            <mxPoint x="12" y="12" as="offset" />
          </mxGeometry>
        </mxCell>
        <mxCell id="PQe1bKcJ9zIPUSs3W7Ri-24" value="" style="shape=rect;fillColor=#1192E8;aspect=fixed;resizable=0;labelPosition=right;verticalLabelPosition=middle;align=left;verticalAlign=middle;strokeColor=none;part=1;spacingLeft=5;fontSize=14;" vertex="1" parent="PQe1bKcJ9zIPUSs3W7Ri-21">
          <mxGeometry width="4" height="48" relative="1" as="geometry" />
        </mxCell>
        <mxCell id="PQe1bKcJ9zIPUSs3W7Ri-9" value="" style="container=1;collapsible=0;expand=0;recursiveResize=0;html=1;whiteSpace=wrap;strokeColor=#1192E8;fillColor=none;strokeWidth=1" vertex="1" parent="1">
          <mxGeometry x="230" y="610" width="240" height="50" as="geometry" />
        </mxCell>
        <mxCell id="PQe1bKcJ9zIPUSs3W7Ri-10" value="alb-subnet-2 (10.0.2.0/24)" style="shape=rect;fillColor=none;aspect=fixed;resizable=0;labelPosition=right;verticalLabelPosition=middle;align=left;verticalAlign=middle;strokeColor=none;part=1;spacingLeft=5;fontSize=14;" vertex="1" parent="PQe1bKcJ9zIPUSs3W7Ri-9">
          <mxGeometry width="48" height="48" relative="1" as="geometry" />
        </mxCell>
        <mxCell id="PQe1bKcJ9zIPUSs3W7Ri-11" value="" style="fillColor=#1192E8;shape=mxgraph.ibm_cloud.ibm-cloud--subnets;strokeColor=none;dashed=0;outlineConnect=0;html=1;labelPosition=center;verticalLabelPosition=bottom;verticalAlign=top;part=1;movable=0;resizable=0;rotatable=0;" vertex="1" parent="PQe1bKcJ9zIPUSs3W7Ri-10">
          <mxGeometry width="24" height="24" relative="1" as="geometry">
            <mxPoint x="12" y="12" as="offset" />
          </mxGeometry>
        </mxCell>
        <mxCell id="PQe1bKcJ9zIPUSs3W7Ri-12" value="" style="shape=rect;fillColor=#1192E8;aspect=fixed;resizable=0;labelPosition=right;verticalLabelPosition=middle;align=left;verticalAlign=middle;strokeColor=none;part=1;spacingLeft=5;fontSize=14;" vertex="1" parent="PQe1bKcJ9zIPUSs3W7Ri-9">
          <mxGeometry width="4" height="48" relative="1" as="geometry" />
        </mxCell>
        <mxCell id="PQe1bKcJ9zIPUSs3W7Ri-114" value="User" style="shape=ellipse;fillColor=#000000;aspect=fixed;resizable=0;labelPosition=center;verticalLabelPosition=bottom;align=center;verticalAlign=top;strokeColor=none;fontSize=14;" vertex="1" parent="1">
          <mxGeometry x="20" y="480" width="48" height="48" as="geometry" />
        </mxCell>
        <mxCell id="PQe1bKcJ9zIPUSs3W7Ri-115" value="" style="fillColor=#ffffff;strokeColor=none;dashed=0;outlineConnect=0;html=1;labelPosition=center;verticalLabelPosition=bottom;verticalAlign=top;part=1;movable=0;resizable=0;rotatable=0;shape=mxgraph.ibm_cloud.user" vertex="1" parent="PQe1bKcJ9zIPUSs3W7Ri-114">
          <mxGeometry width="24" height="24" relative="1" as="geometry">
            <mxPoint x="12" y="12" as="offset" />
          </mxGeometry>
        </mxCell>
        <mxCell id="PQe1bKcJ9zIPUSs3W7Ri-118" value="" style="html=1;labelBackgroundColor=#ffffff;jettySize=auto;orthogonalLoop=1;fontSize=14;rounded=0;jumpStyle=gap;edgeStyle=orthogonalEdgeStyle;startArrow=none;endArrow=block;strokeWidth=2;endFill=1;entryX=0;entryY=0.5;entryDx=0;entryDy=0;exitX=1;exitY=0.5;exitDx=0;exitDy=0;curved=1;" edge="1" parent="1" source="PQe1bKcJ9zIPUSs3W7Ri-114" target="PQe1bKcJ9zIPUSs3W7Ri-77">
          <mxGeometry width="48" height="48" relative="1" as="geometry">
            <mxPoint x="430" y="498" as="sourcePoint" />
            <mxPoint x="478" y="450" as="targetPoint" />
          </mxGeometry>
        </mxCell>
        <mxCell id="PQe1bKcJ9zIPUSs3W7Ri-126" value="&lt;font style=&quot;font-size: 14px;&quot;&gt;22/tcp&lt;/font&gt;" style="edgeLabel;html=1;align=center;verticalAlign=middle;resizable=0;points=[];" vertex="1" connectable="0" parent="PQe1bKcJ9zIPUSs3W7Ri-118">
          <mxGeometry x="-0.731" y="1" relative="1" as="geometry">
            <mxPoint x="26" y="-13" as="offset" />
          </mxGeometry>
        </mxCell>
        <mxCell id="PQe1bKcJ9zIPUSs3W7Ri-121" value="" style="html=1;labelBackgroundColor=#ffffff;jettySize=auto;orthogonalLoop=1;fontSize=14;rounded=0;jumpStyle=gap;edgeStyle=orthogonalEdgeStyle;startArrow=none;endArrow=block;strokeWidth=2;endFill=1;entryX=0.5;entryY=0;entryDx=0;entryDy=0;exitX=1;exitY=0.5;exitDx=0;exitDy=0;curved=1;" edge="1" parent="1" source="PQe1bKcJ9zIPUSs3W7Ri-114" target="PQe1bKcJ9zIPUSs3W7Ri-53">
          <mxGeometry width="48" height="48" relative="1" as="geometry">
            <mxPoint x="430" y="498" as="sourcePoint" />
            <mxPoint x="478" y="450" as="targetPoint" />
            <Array as="points">
              <mxPoint x="100" y="504" />
              <mxPoint x="100" y="608" />
            </Array>
          </mxGeometry>
        </mxCell>
        <mxCell id="PQe1bKcJ9zIPUSs3W7Ri-127" value="&lt;font style=&quot;font-size: 14px;&quot;&gt;80/tcp&lt;/font&gt;" style="edgeLabel;html=1;align=center;verticalAlign=middle;resizable=0;points=[];" vertex="1" connectable="0" parent="PQe1bKcJ9zIPUSs3W7Ri-121">
          <mxGeometry x="0.5046" y="11" relative="1" as="geometry">
            <mxPoint as="offset" />
          </mxGeometry>
        </mxCell>
        <mxCell id="PQe1bKcJ9zIPUSs3W7Ri-125" value="" style="html=1;labelBackgroundColor=#ffffff;jettySize=auto;orthogonalLoop=1;fontSize=14;rounded=0;jumpStyle=gap;edgeStyle=orthogonalEdgeStyle;startArrow=none;endArrow=block;strokeWidth=2;endFill=1;exitX=1;exitY=0;exitDx=0;exitDy=0;entryX=0;entryY=0.75;entryDx=0;entryDy=0;curved=1;" edge="1" parent="1" source="PQe1bKcJ9zIPUSs3W7Ri-9" target="PQe1bKcJ9zIPUSs3W7Ri-57">
          <mxGeometry width="48" height="48" relative="1" as="geometry">
            <mxPoint x="430" y="498" as="sourcePoint" />
            <mxPoint x="478" y="450" as="targetPoint" />
            <Array as="points">
              <mxPoint x="530" y="610" />
              <mxPoint x="530" y="563" />
            </Array>
          </mxGeometry>
        </mxCell>
        <mxCell id="PQe1bKcJ9zIPUSs3W7Ri-128" value="&lt;font style=&quot;font-size: 13px;&quot;&gt;80/tcp&lt;/font&gt;" style="edgeLabel;html=1;align=center;verticalAlign=middle;resizable=0;points=[];" vertex="1" connectable="0" parent="PQe1bKcJ9zIPUSs3W7Ri-125">
          <mxGeometry x="-0.0656" y="-7" relative="1" as="geometry">
            <mxPoint as="offset" />
          </mxGeometry>
        </mxCell>
      </root>
    </mxGraphModel>
  </diagram>
</mxfile>
